<?xml version="1.0" encoding="utf-8"?>
<!-- Generator: Adobe Illustrator 23.0.0, SVG Export Plug-In . SVG Version: 6.00 Build 0)  -->
<svg version="1.1" id="Capa_1" xmlns="http://www.w3.org/2000/svg" xmlns:xlink="http://www.w3.org/1999/xlink" x="0px" y="0px"
	 viewBox="0 0 175 62" style="enable-background:new 0 0 175 62;" xml:space="preserve">
<style type="text/css">
	.st0{fill:#FFFFFF;}
</style>
<polygon class="st0" points="21.3,19.8 48.6,3.3 76.5,20.3 76.5,32.2 66.9,37.8 67.2,48.5 57.4,54.9 48.5,48.8 39.7,54.6 29,48 
	28.8,36.9 21.5,31.5 "/>
<path class="st0" d="M75.2,25.6c0,1.2,0,2.3,0,3.5c0,0.8-0.3,1.6-0.2,2.5c0,0.3-0.2,0.4-0.4,0.5c-2.9,1.6-5.8,3.2-8.7,4.8
	c-0.2,0.1-0.3,0.3-0.3,0.6c0,1.7-0.1,3.4,0,5.1c0.1,1.5,0,2.9,0.1,4.4c0,0.4-0.1,0.6-0.4,0.9c-2.5,1.6-4.9,3.2-7.4,4.8
	c-0.3,0.2-0.6,0.3-1,0c-2.6-1.7-5.2-3.3-7.8-4.9c-0.4-0.2-0.6-0.1-0.8,0.1c-2.7,1.7-5.3,3.3-8,5c-0.2,0.1-0.4,0.2-0.6,0
	c-2.8-1.9-5.7-3.7-8.6-5.6c-0.2-0.1-0.3-0.2-0.2-0.5c0.1-0.6,0.1-1.3,0.1-2c0-2.3-0.1-4.5,0-6.8c0-0.7-0.2-1-0.7-1.4
	c-2.4-1.6-4.7-3.2-7.2-4.7c-0.7-0.4-0.6-1-0.8-1.6c0,0,0-0.1,0-0.1c0-2.7,0-5.4-0.2-8c-0.1-1.3,0.5-1.6,1.3-2.1
	c3.2-1.9,6.4-3.9,9.6-5.9c2.9-1.8,5.9-3.6,8.8-5.4c2.1-1.3,4.2-2.6,6.3-3.9c0.3-0.2,0.4,0,0.6,0.1c4.9,3,9.8,5.9,14.7,8.9
	c3.8,2.3,7.6,4.6,11.3,6.9c0.3,0.2,0.4,0.4,0.4,0.8C75.2,22.9,75.2,24.3,75.2,25.6z"/>
<path d="M74.7,31c-3.3-2.1-6.5-4.1-9.8-6.1C65,27,64.8,29,65.1,31c0.1,1,0,2,0,3c0,2.9,0.2,5.8,0.2,8.7c0,1.3,0,2.6,0.1,4
	c-8.8-5.4-17.5-10.8-26.3-16.3c0,0.8-0.1,1.4,0,2.1c0.3,1.9,0,3.9,0.1,5.8c0.1,1,0.2,2,0.1,3c0,0.2,0.1,0.4-0.2,0.5
	c-2.5,1.5-5.1,3-7.7,4.6c0-0.3,0-0.5,0-0.7c0-1.8-0.1-3.6,0-5.4c0.2-3.9,0.1-7.7,0.2-11.6c0-0.8,0.1-1.6,0.1-2.4
	c0-0.3,0.1-0.4,0.3-0.5c2.7-1.6,5.3-3.2,7.9-4.8c0.3-0.2,0.4,0,0.6,0.1c5.3,3.5,10.6,7.1,15.9,10.6c0.2,0.1,0.4,0.2,0.7,0.4
	c-0.1-1.2,0.1-2.2-0.1-3.3c0-0.2,0-0.3,0-0.5c0-2.4,0-4.9-0.1-7.3c0-0.4-0.3-0.6-0.5-0.7c-1.7-1.1-3.5-2.1-5.2-3.2
	c-0.8-0.5-1.6-0.9-2.3-1.3c-0.3-0.2-0.4-0.5-0.4-0.9c0-3.1,0.3-6.2,0.1-9.5c1.2,0.7,2.3,1.4,3.4,2c2.9,1.8,5.8,3.5,8.7,5.3
	c2.8,1.7,5.6,3.4,8.4,5.1c1.8,1.1,3.6,2.2,5.4,3.3c0.3,0.2,0.4,0.3,0.4,0.6c0,2.6,0,5.2,0,7.8C74.8,30,74.5,30.4,74.7,31z"/>
<path d="M48.2,5.6c0,1.8,0.1,3.7,0,5.5C48,12.5,48,13.8,48,15.2c0,0.3-0.2,0.4-0.4,0.5c-5.1,3.1-10.2,6.1-15.3,9.2
	c-3,1.8-5.9,3.6-8.8,5.4c-0.7,0.4-0.8,0.3-0.8-0.5c0.1-2.7-0.2-5.4-0.2-8c0-0.5,0.1-0.8,0.5-1c2.5-1.5,5-3.1,7.6-4.6
	c2.9-1.8,5.8-3.6,8.8-5.4c2.7-1.7,5.5-3.3,8.2-5C47.8,5.7,48,5.6,48.2,5.6z"/>
<path class="st0" d="M88.7,33.1c0.6,0,1.3,0,1.9,0c0.9,0,1.4,0.4,1.6,1.2c0.1,0.8,0.2,1.5-0.1,2.3c-0.3,0.6-0.7,1-1.4,1
	c-1.4,0-2.8,0-4.2,0c-0.4,0-0.5-0.2-0.5-0.6c0-1.2,0-2.3,0-3.5c0-0.4,0.2-0.5,0.6-0.5C87.2,33.2,87.9,33.1,88.7,33.1z"/>
<path class="st0" d="M84.5,20.9h2.7c0.1,0,0.6,1,1.7,2.7c2.1,3.6,3.2,5.5,3.3,5.6v0H89c-0.1-0.1-1-1.7-2.9-4.8
	c-0.2-0.4-0.3-0.6-0.4-0.6c-2.1,3.5-3.1,5.3-3.2,5.4h-3.1v0C82.7,23.9,84.4,21.1,84.5,20.9z"/>
<path class="st0" d="M95.5,20.9h8.9c0,0,0,0,0,0v1.9c0,0,0,0,0,0H97c-0.6,0-1.1,0.3-1.3,1c0,0.1,0,0.2,0,0.3v1.7
	c0,0.6,0.3,1,0.9,1.3c0.1,0.1,0.3,0.1,0.4,0.1h4.8v-1.5c0,0,0,0,0,0h2.6c0,0,0,0,0,0v3.5c0,0,0,0,0,0h-8.8c-0.8,0-1.5-0.3-2.1-0.9
	c-0.4-0.4-0.5-0.9-0.5-1.4v-3.8c0-0.9,0.5-1.5,1.5-2C94.8,21,95.2,20.9,95.5,20.9z"/>
<path class="st0" d="M105.3,20.9h11.5c0,0,0,0,0,0v1.9c0,0,0,0,0,0h-11.5c0,0,0,0,0,0L105.3,20.9C105.2,20.9,105.3,20.9,105.3,20.9z
	 M105.3,24.2h11.5c0,0,0,0,0,0V26c0,0,0,0,0,0h-11.5c0,0,0,0,0,0L105.3,24.2C105.2,24.2,105.3,24.2,105.3,24.2z M105.3,27.3h11.5
	c0,0,0,0,0,0v1.9c0,0,0,0,0,0h-11.5c0,0,0,0,0,0L105.3,27.3C105.2,27.3,105.3,27.3,105.3,27.3z"/>
<path class="st0" d="M117.6,20.9h8.9c0.8,0,1.5,0.3,2.2,1c0.3,0.4,0.4,0.8,0.4,1.2v6.1c0,0,0,0,0,0h-2.6c0,0,0,0,0,0v-4.9
	c0-0.7-0.3-1.2-1-1.4c-0.2,0-0.3-0.1-0.4-0.1h-4.8v6.4c0,0,0,0,0,0h-2.6c0,0,0,0,0,0L117.6,20.9C117.6,20.9,117.6,20.9,117.6,20.9z"
	/>
<path class="st0" d="M132.5,20.9h8.9c0,0,0,0,0,0v1.9c0,0,0,0,0,0h-7.4c-0.7,0-1.1,0.4-1.3,1.1c0,0.1,0,0.2,0,0.3v1.6
	c0,0.6,0.3,1,0.9,1.3c0.1,0.1,0.3,0.1,0.4,0.1h7.4c0,0,0,0,0,0v1.9c0,0,0,0,0,0h-8.8c-0.9,0-1.7-0.4-2.3-1.1
	c-0.3-0.4-0.4-0.8-0.4-1.2v-3.9c0-0.7,0.4-1.3,1.2-1.8C131.5,21,132,20.9,132.5,20.9z"/>
<path class="st0" d="M142.2,20.9h2.6c0,0,0,0,0,0v8.3c0,0,0,0,0,0h-2.6c0,0,0,0,0,0L142.2,20.9C142.2,20.9,142.2,20.9,142.2,20.9z"
	/>
<path class="st0" d="M150.6,20.9h2.7c0.1,0,0.6,1,1.7,2.7c2.1,3.6,3.2,5.5,3.3,5.6v0h-3.1c-0.1-0.1-1-1.7-2.9-4.8
	c-0.2-0.4-0.3-0.6-0.4-0.6c-2.1,3.5-3.1,5.3-3.2,5.4h-3.1v0C148.8,23.9,150.5,21.1,150.6,20.9z"/>
<path class="st0" d="M79.6,32.8h8.9c0.8,0,1.5,0.3,2.1,0.9c0.4,0.4,0.6,0.9,0.6,1.4V39c0,0.7-0.4,1.3-1.2,1.9
	c-0.5,0.3-1,0.4-1.5,0.4h-9c0,0,0,0,0,0L79.6,32.8C79.6,32.8,79.6,32.8,79.6,32.8z M82.3,34.8v4.5h4.9c0.6,0,1-0.3,1.3-1
	c0-0.1,0.1-0.3,0.1-0.4v-1.7c0-0.6-0.3-1.1-0.9-1.3c-0.1,0-0.3-0.1-0.5-0.1H82.3z"/>
<path class="st0" d="M92.1,32.8h2.6c0,0,0,0,0,0v8.4c0,0,0,0,0,0h-2.6c0,0,0,0,0,0L92.1,32.8C92,32.8,92,32.8,92.1,32.8z"/>
<path class="st0" d="M98.2,32.8h9c0,0,0,0,0,0v1.9c0,0,0,0,0,0h-7.5c-0.6,0-1.1,0.3-1.3,1c0,0.1,0,0.2,0,0.3v1.7
	c0,0.6,0.3,1.1,0.9,1.3c0.1,0.1,0.3,0.1,0.5,0.1h4.8v-1.6c0,0,0,0,0,0h2.6c0,0,0,0,0,0v3.5c0,0,0,0,0,0h-8.9c-0.8,0-1.5-0.3-2.1-0.9
	c-0.4-0.4-0.6-0.9-0.6-1.4v-3.9c0-0.9,0.5-1.5,1.5-2C97.4,32.9,97.8,32.8,98.2,32.8z"/>
<path class="st0" d="M108,32.8h2.6c0,0,0,0,0,0v8.4c0,0,0,0,0,0H108c0,0,0,0,0,0L108,32.8C108,32.8,108,32.8,108,32.8z"/>
<path class="st0" d="M111.5,32.8h11.6c0,0,0,0,0,0v1.9c0,0,0,0,0,0h-4.4v6.4c0,0,0,0,0,0H116c0,0,0,0,0,0v-6.4h-4.4c0,0,0,0,0,0
	L111.5,32.8C111.5,32.8,111.5,32.8,111.5,32.8z"/>
<path class="st0" d="M128.9,32.8h2.7c0.1,0,0.6,1,1.7,2.8c2.1,3.6,3.3,5.5,3.3,5.7v0h-3.1c-0.1-0.1-0.4-0.6-1-1.7h-4.4
	c-0.6,1-0.9,1.6-1,1.7H124v0C127.2,35.8,128.8,33,128.9,32.8z M130.3,35.9l-1,1.7h2C130.7,36.5,130.3,35.9,130.3,35.9z"/>
<path class="st0" d="M137.5,32.8h2.6c0,0,0,0,0,0v6.4h8.9c0,0,0,0,0,0v1.9c0,0,0,0,0,0h-11.6c0,0,0,0,0,0L137.5,32.8
	C137.5,32.8,137.5,32.8,137.5,32.8z"/>
</svg>
