<?xml version="1.0" encoding="utf-8"?>
<!-- Generator: Adobe Illustrator 23.1.1, SVG Export Plug-In . SVG Version: 6.00 Build 0)  -->
<svg version="1.1" id="Layer_1" xmlns="http://www.w3.org/2000/svg" xmlns:xlink="http://www.w3.org/1999/xlink" x="0px" y="0px"
	 viewBox="0 0 12 12" style="enable-background:new 0 0 12 12;" xml:space="preserve">
<style type="text/css">
	.st0{fill:#FFFFFF;}
</style>
<g>
	<path class="st0" d="M8.1,8.1C7.6,8.7,6.8,9,6,9S4.4,8.7,3.9,8.1C3.3,7.6,3,6.8,3,6s0.3-1.6,0.9-2.1S5.2,3,6,3s1.6,0.3,2.1,0.9
		C8.7,4.4,9,5.2,9,6S8.7,7.6,8.1,8.1z"/>
	<g>
		<path class="st0" d="M1.8,6.7H0.6C0.3,6.7,0,6.4,0,6.2c0-0.3,0.3-0.6,0.6-0.6h1.3c0.4,0,0.6,0.3,0.6,0.6C2.4,6.4,2.3,6.7,1.8,6.7z
			"/>
		<path class="st0" d="M11.4,6.7h-1.3c-0.3,0-0.6-0.3-0.6-0.6c0-0.3,0.3-0.6,0.6-0.6h1.3c0.4,0,0.6,0.3,0.6,0.6
			C12,6.4,11.8,6.7,11.4,6.7z"/>
	</g>
	<g>
		<path class="st0" d="M2.7,3.6L1.7,2.7c-0.2-0.2-0.2-0.6,0-0.8s0.6-0.2,0.8,0l0.9,0.9c0.3,0.3,0.2,0.6,0,0.8C3.3,3.8,3,3.9,2.7,3.6
			z"/>
		<path class="st0" d="M9.4,10.4L8.5,9.5c-0.2-0.2-0.2-0.6,0-0.8s0.6-0.2,0.8,0l0.9,0.9c0.3,0.3,0.2,0.6,0,0.8S9.7,10.7,9.4,10.4z"
			/>
	</g>
	<g>
		<path class="st0" d="M5.4,1.9V0.6C5.4,0.3,5.7,0,6,0s0.6,0.3,0.6,0.6v1.3c0,0.4-0.3,0.6-0.6,0.6S5.4,2.3,5.4,1.9z"/>
		<path class="st0" d="M5.4,11.4v-1.3c0-0.3,0.3-0.6,0.6-0.6s0.6,0.3,0.6,0.6v1.3C6.5,11.9,6.3,12,6,12S5.4,11.9,5.4,11.4z"/>
	</g>
	<g>
		<path class="st0" d="M3.5,9.5l-0.9,0.9c-0.2,0.2-0.6,0.2-0.8,0s-0.2-0.6,0-0.8l0.9-0.9c0.3-0.3,0.6-0.2,0.8,0S3.8,9.2,3.5,9.5z"/>
		<path class="st0" d="M10.2,2.7L9.3,3.6c-0.2,0.2-0.6,0.2-0.8,0C8.3,3.4,8.3,3,8.5,2.8l0.9-0.9c0.3-0.3,0.6-0.2,0.8,0
			S10.5,2.4,10.2,2.7z"/>
	</g>
</g>
</svg>
