<?xml version="1.0" encoding="utf-8"?>
<!-- Generator: Adobe Illustrator 23.1.1, SVG Export Plug-In . SVG Version: 6.00 Build 0)  -->
<svg version="1.1" id="Layer_1" xmlns="http://www.w3.org/2000/svg" xmlns:xlink="http://www.w3.org/1999/xlink" x="0px" y="0px"
	 viewBox="0 0 9 10" style="enable-background:new 0 0 9 10;" xml:space="preserve">
<style type="text/css">
	path{fill:#FFFFFF;}
</style>
<path d="M9,7C9,7,8.9,6.9,8.9,6.8C8.8,6.7,8.6,6.7,8.4,6.8C8,7,7.5,7.1,7.1,7.1c-0.6,0-1.2-0.1-1.7-0.4C4.9,6.3,4.5,5.9,4.2,5.4
	C3.9,4.9,3.7,4.3,3.7,3.7c0-0.5,0.1-0.9,0.3-1.3C4.2,2,4.5,1.6,4.8,1.3C4.9,1.2,5,1,4.9,0.8C4.8,0.7,4.7,0.6,4.5,0.6
	C3.9,0.6,3.3,0.8,2.7,1c-0.6,0.3-1,0.6-1.4,1c-0.4,0.4-0.7,0.9-1,1.5C0.1,4.1,0,4.7,0,5.3c0,0.6,0.1,1.2,0.4,1.8
	c0.2,0.6,0.6,1.1,1,1.5c0.4,0.4,0.9,0.8,1.5,1C3.5,9.9,4.1,10,4.7,10c0.9,0,1.8-0.2,2.5-0.7C8,8.8,8.6,8.1,9,7.3C9,7.2,9,7.1,9,7z"
	/>
</svg>
