<?xml version="1.0" encoding="utf-8"?>
<!-- Generator: Adobe Illustrator 23.0.0, SVG Export Plug-In . SVG Version: 6.00 Build 0)  -->
<svg version="1.0" id="Capa_1" xmlns="http://www.w3.org/2000/svg" xmlns:xlink="http://www.w3.org/1999/xlink" x="0px" y="0px"
	 viewBox="0 0 20 20" style="enable-background:new 0 0 20 20;" xml:space="preserve">
<style type="text/css">
	.st0{fill-rule:evenodd;clip-rule:evenodd;fill:#FFFFFF;}
</style>
<path class="st0" d="M9.5,3.9c-0.9,0-1.7,0.7-1.7,1.7s0.7,1.7,1.7,1.7s1.7-0.7,1.7-1.7S10.4,3.9,9.5,3.9z M9.5,6.9
	c-0.7,0-1.4-0.6-1.4-1.4s0.6-1.4,1.4-1.4s1.4,0.6,1.4,1.4S10.2,6.9,9.5,6.9z"/>
<path class="st0" d="M9.5,8C8.6,8,7.8,8.8,7.8,9.7s0.7,1.7,1.7,1.7s1.7-0.7,1.7-1.7S10.4,8,9.5,8z M9.5,11c-0.7,0-1.4-0.6-1.4-1.4
	s0.6-1.4,1.4-1.4s1.4,0.6,1.4,1.4S10.2,11,9.5,11z"/>
<path class="st0" d="M9.5,12.2c-0.9,0-1.7,0.7-1.7,1.7s0.7,1.7,1.7,1.7s1.7-0.7,1.7-1.7S10.4,12.2,9.5,12.2z M9.5,15.2
	c-0.7,0-1.4-0.6-1.4-1.4s0.6-1.4,1.4-1.4s1.4,0.6,1.4,1.4S10.2,15.2,9.5,15.2z"/>
</svg>
