<svg viewBox="0 0 22 22" fill="none" xmlns="http://www.w3.org/2000/svg">
<path fill-rule="evenodd" clip-rule="evenodd" d="M14.0274 16.2371C12.6429 17.1913 10.9648 17.75 9.15625 17.75C4.41005 17.75 0.5625 13.9024 0.5625 9.15625C0.5625 4.41005 4.41005 0.5625 9.15625 0.5625C13.9024 0.5625 17.75 4.41005 17.75 9.15625C17.75 10.9648 17.1913 12.6429 16.2371 14.0274L21.9799 19.7701L19.7701 21.9799L14.0274 16.2371ZM9.15625 14.625C12.1766 14.625 14.625 12.1766 14.625 9.15625C14.625 6.13594 12.1766 3.6875 9.15625 3.6875C6.13594 3.6875 3.6875 6.13594 3.6875 9.15625C3.6875 12.1766 6.13594 14.625 9.15625 14.625Z" fill="black"/>
</svg>
