<svg width="20" height="20" viewBox="0 0 20 20" fill="none" xmlns="http://www.w3.org/2000/svg">
<path fill-rule="evenodd" clip-rule="evenodd" d="M0 9.625C0 14.9407 4.30926 19.25 9.625 19.25C14.9407 19.25 19.25 14.9407 19.25 9.625C19.25 4.30926 14.9407 0 9.625 0C4.30926 0 0 4.30926 0 9.625ZM17.5 9.625C17.5 13.9742 13.9742 17.5 9.625 17.5C5.27576 17.5 1.75 13.9742 1.75 9.625C1.75 5.27576 5.27576 1.75 9.625 1.75C13.9742 1.75 17.5 5.27576 17.5 9.625ZM9.50029 13.8736C9.9837 13.8736 10.3756 13.4818 10.3756 12.9986C10.3756 12.5153 9.9837 12.1236 9.50029 12.1236C9.01688 12.1236 8.625 12.5153 8.625 12.9986C8.625 13.4818 9.01688 13.8736 9.50029 13.8736ZM8.625 11.25H10.375C10.375 10.5514 10.4847 10.4234 11.2038 10.0639C12.4535 9.43903 13 8.80144 13 7.3125C13 5.40555 11.4988 4.25 9.5 4.25C7.567 4.25 6 5.817 6 7.75H7.75C7.75 6.7835 8.5335 6 9.5 6C10.6175 6 11.25 6.48686 11.25 7.3125C11.25 8.01106 11.1403 8.13909 10.4212 8.49863C9.17151 9.12347 8.625 9.76106 8.625 11.25Z" fill="#09D3E0"/>
</svg>
